<?xml version="1.0" encoding="UTF-8"?>
<svg id="_Слой_2" data-name="Слой 2" xmlns="http://www.w3.org/2000/svg" viewBox="0 0 172.09 172.09">
  <defs>
    <style>
      .cls-1 {
        fill: #fff;
      }

      .cls-2 {
        fill: #0070f0;
      }
    </style>
  </defs>
  <g id="_Слой_1-2" data-name="Слой 1">
    <g>
      <rect class="cls-2" x="0" y="0" width="172.09" height="172.09" rx="49.41" ry="49.41"/>
      <path class="cls-1" d="m95.01,40.09c-.13,3.01-.35,6.02-.66,9.02-.14,1.34-.3,2.68-.47,4.02-.12.95.2-1.35-.02.17-.05.31-.09.63-.14.94-.12.79-.24,1.57-.37,2.35-.95,5.8-2.23,11.54-3.83,17.19-.76,2.66-1.57,5.31-2.49,7.92-.23.67-.48,1.33-.73,1.99-.1.26-.21.53-.31.79-.38.96.02,0,.07-.16-.41,1.3-1.21,2.6-1.88,3.77-.28.48-.57.96-.88,1.43-.19.29-.41.57-.6.86-.42.66.62-.72.11-.13-.84.99-1.71,1.87-2.66,2.75s.72-.46.04-.02c-.22.14-.43.3-.65.45-.49.33-1,.63-1.53.9-.04.02-.6.36-.7.35l.61-.25c-.18.07-.36.14-.55.21-.61.22-1.23.4-1.86.54l-.19.04c-.62.11-.5.11.34-.01-.07.07-.73.07-.76.07-.58.03-1.15-.01-1.73-.02-.8-.01,1.36.34.14,0-.23-.06-.47-.1-.7-.17-.21-.06-.42-.13-.64-.2-1.09-.35,1.1.6.11.02-.19-.11-.39-.21-.58-.33-.25-.15-.78-.76-.27-.13.56.69-.07-.07-.22-.2-.17-.15-.33-.31-.48-.47s-.3-.33-.45-.49c-.65-.7.26.25.25.34.02-.16-.82-1.41-.93-1.57-.4-.58.4,1.33.13.27-.05-.21-.13-.41-.19-.62-.04-.15-.07-.53-.14-.63.41.58.08,1.19.08.52,0-.26,0-.54-.01-.8-.04-.86.41-.24-.08.36.07-.09.13-.56.15-.63.04-.16.1-.32.15-.47.15-.41.07-.21-.26.6.18-.15.56-.82.62-1.05-.19.84-.76.83-.21.31.18-.17.36-.35.53-.53.36-.37.52-.08-.42.3.16-.06.35-.25.5-.34.17-.11.35-.21.53-.31.84-.46.35-.06-.22.03.49-.08,1-.36,1.49-.48.2-.05.41-.09.62-.14.87-.23-.43.06-.54.05.46.04.98-.09,1.44-.09.27,0,.53,0,.8.02.61.03,1.08.45-.21-.06.38.15.85.16,1.25.26.23.06,1.67.53.9.27-.85-.3.32.17.41.22.23.12.46.25.69.38.44.25,1.4.64,1.65,1.07-.32-.56-.64-.54-.19-.15.25.22.5.42.75.64.44.4.87.81,1.29,1.24s.82.88,1.22,1.33c.18.2.35.41.52.61.1.13.98,1.19.45.54-.57-.7.26.35.3.4.16.22.32.43.48.65.35.49.7.98,1.04,1.48.8,1.17,1.59,2.35,2.36,3.54,3.34,5.16,6.36,10.53,9.04,16.07.69,1.42,1.35,2.84,1.99,4.28.34.75.69,1.5.99,2.27-.07-.18-.44-1.05-.04-.09.17.42.34.83.51,1.25,1.19,2.92,2.27,5.87,3.28,8.86.93,2.75,3.88,4.85,6.85,3.89,2.74-.89,4.88-3.89,3.89-6.85-4.07-12.11-9.54-23.77-16.41-34.54-3.18-4.98-6.54-10.24-11.24-13.93-5.01-3.93-11.35-5.98-17.63-4.03-5.88,1.82-10.77,7.12-10.34,13.58s4.97,12.15,11.19,14.14c6.7,2.14,13.94-.68,18.99-5.12s7.53-10.41,9.59-16.35c4.91-14.18,7.57-29.2,8.24-44.18.13-2.91-2.65-5.7-5.57-5.57-3.13.14-5.43,2.45-5.57,5.57h0Z"/>
    </g>
  </g>
</svg>